<?xml version="1.0" encoding="utf-8"?>
<!-- Generator: Adobe Illustrator 18.1.1, SVG Export Plug-In . SVG Version: 6.00 Build 0)  -->
<svg version="1.1" xmlns="http://www.w3.org/2000/svg" xmlns:xlink="http://www.w3.org/1999/xlink" x="0px" y="0px"
	 viewBox="-287 379 36 36" enable-background="new -287 379 36 36" xml:space="preserve">
<g id="Layer_1" zoomAndPan="disable" display="none">
	<line display="inline" fill="none" x1="-287" y1="397" x2="-269" y2="415"/>
	<line display="inline" fill="none" x1="-251" y1="397" x2="-269" y2="415"/>
	<line display="inline" fill="none" x1="-269" y1="415" x2="-269" y2="379"/>
</g>
<g id="Layer_2">
	<g id="mZcO1M.tif">
		<g>
			<path fill="none" stroke="#FFFFFF" stroke-linecap="round" stroke-linejoin="round" stroke-miterlimit="10" d="M-261.5,388.1
				c-1.5,1.4-2.8,2.9-4.4,4.1c-1.7,1.3-2,3-1.9,5c0.1,5.2,0,10.4,0,15.6"/>
			<path fill="none" stroke="#FFFFFF" stroke-linecap="round" stroke-linejoin="round" stroke-miterlimit="10" d="M-274.1,380.4
				c2.1,1.9,4.2,3.9,6.3,5.9c2.1-2,4.2-3.9,6.3-5.9"/>
			<path fill="none" stroke="#FFFFFF" stroke-linecap="round" stroke-linejoin="round" stroke-miterlimit="10" d="M-274.1,384.2
				c2.1,1.9,4.2,3.9,6.3,5.9c2.1-2,4.2-3.9,6.3-5.9"/>
			<path fill="none" stroke="#FFFFFF" stroke-linecap="round" stroke-linejoin="round" stroke-miterlimit="10" d="M-274.1,388.1
				c2.1,1.9,4.2,3.8,6.3,5.8"/>
			<path fill="none" stroke="#FFFFFF" stroke-linecap="round" stroke-linejoin="round" stroke-miterlimit="10" d="M-274.1,407.3
				c1.6,1.6,3.1,3.3,4.7,4.9c1.1,1.2,2.2,1.2,3.3,0c1.5-1.7,3.1-3.3,4.7-4.9"/>
		</g>
	</g>
</g>
</svg>
